<svg aria-hidden="true" style="position: absolute; width: 0; height: 0; overflow: hidden;" version="1.1" xmlns="http://www.w3.org/2000/svg" xmlns:xlink="http://www.w3.org/1999/xlink">
<defs>
<symbol id="password" viewBox="0 0 26 32">
<path fill="#e0e0e0" style="fill: var(--color1, #e0e0e0)" d="M22.095 10.667h-1.524v-3.048c0-4.206-3.413-7.619-7.619-7.619s-7.619 3.413-7.619 7.619v3.048h-1.524c-1.676 0-3.048 1.371-3.048 3.048v15.238c0 1.676 1.371 3.048 3.048 3.048h18.286c1.676 0 3.048-1.371 3.048-3.048v-15.238c0-1.676-1.371-3.048-3.048-3.048zM12.952 24.381c-1.676 0-3.048-1.371-3.048-3.048s1.371-3.048 3.048-3.048c1.676 0 3.048 1.371 3.048 3.048s-1.371 3.048-3.048 3.048zM17.676 10.667h-9.448v-3.048c0-2.606 2.118-4.724 4.724-4.724s4.724 2.118 4.724 4.724v3.048z"></path>
</symbol>
<symbol id="arrow" viewBox="0 0 58 32">
<path stroke-linejoin="miter" stroke-linecap="butt" stroke-miterlimit="4" stroke-width="2.9091" d="M2.909 2.909l26.182 26.182 26.182-26.182"></path>
</symbol>
<symbol id="calendar" viewBox="0 0 29 32">
<path fill="#4a56e2" style="fill: var(--color2, #4a56e2)" d="M9.6 14.4h-3.2v3.2h3.2v-3.2zM16 14.4h-3.2v3.2h3.2v-3.2zM22.4 14.4h-3.2v3.2h3.2v-3.2zM25.6 3.2h-1.6v-3.2h-3.2v3.2h-12.8v-3.2h-3.2v3.2h-1.6c-1.776 0-3.184 1.44-3.184 3.2l-0.016 22.4c0 1.76 1.424 3.2 3.2 3.2h22.4c1.76 0 3.2-1.44 3.2-3.2v-22.4c0-1.76-1.44-3.2-3.2-3.2zM25.6 28.8h-22.4v-17.6h22.4v17.6z"></path>
</symbol>
<symbol id="closeModal" viewBox="0 0 32 32">
<path stroke-linejoin="miter" stroke-linecap="butt" stroke-miterlimit="4" stroke-width="1.7778" d="M1.778 1.778l28.444 28.444"></path>
<path stroke-linejoin="miter" stroke-linecap="butt" stroke-miterlimit="4" stroke-width="1.7778" d="M1.778 30.222l28.444-28.444"></path>
</symbol>
<symbol id="dollarMobail" viewBox="0 0 32 32">
<path fill="#6e78e8" style="fill: var(--color3, #6e78e8)" d="M5.053 0c-2.791 0-5.053 2.262-5.053 5.053v21.895c0 2.79 2.262 5.053 5.053 5.053h21.895c2.79 0 5.053-2.262 5.053-5.053v-21.895c0-2.791-2.262-5.053-5.053-5.053h-21.895zM13.265 13.136c0 0.995 0.765 1.635 3.144 2.253s4.925 1.635 4.925 4.61c0 2.148-1.624 3.332-3.667 3.72v2.253h-3.143v-2.274c-2.012-0.43-3.73-1.718-3.856-4.013h2.305c0.115 1.236 0.964 2.2 3.123 2.2 2.316 0 2.829-1.153 2.829-1.876 0-0.974-0.524-1.896-3.143-2.525-2.923-0.702-4.925-1.907-4.925-4.327 0-2.022 1.635-3.342 3.667-3.783v-2.263h3.143v2.295c2.19 0.534 3.29 2.19 3.363 3.992h-2.316c-0.063-1.31-0.754-2.2-2.619-2.2-1.771 0-2.829 0.796-2.829 1.938z"></path>
</symbol>
<symbol id="email" viewBox="0 0 42 32">
<path fill="#e0e0e0" style="fill: var(--color1, #e0e0e0)" d="M37 0h-32c-2.2 0-3.98 1.8-3.98 4l-0.020 24c0 2.2 1.8 4 4 4h32c2.2 0 4-1.8 4-4v-24c0-2.2-1.8-4-4-4zM37 8l-16 10-16-10v-4l16 10 16-10v4z"></path>
</symbol>
<symbol id="exit" viewBox="0 0 32 32">
<path fill="#bdbdbd" style="fill: var(--color4, #bdbdbd)" d="M20.051 23.237h2.499v4.997c0 2.067-1.681 3.748-3.748 3.748h-15.054c-2.066 0-3.748-1.681-3.748-3.748v-24.486c0-2.066 1.681-3.748 3.748-3.748h15.054c2.067 0 3.748 1.681 3.748 3.748v4.997h-2.499v-4.997c0-0.689-0.56-1.249-1.249-1.249h-15.054c-0.689 0-1.249 0.561-1.249 1.249v24.486c0 0.689 0.561 1.249 1.249 1.249h15.054c0.689 0 1.249-0.561 1.249-1.249v-4.997zM26.111 10.102l-1.767 1.767 2.873 2.874h-16.161v2.499h16.161l-2.873 2.873 1.767 1.767 5.889-5.889-5.889-5.89z"></path>
</symbol>
<symbol id="expense" viewBox="0 0 320 32">
<path fill="none" stroke="#fff" style="stroke: var(--color5, #fff)" stroke-linejoin="miter" stroke-linecap="butt" stroke-miterlimit="4" stroke-width="32" d="M0 16l320-0"></path>
</symbol>
<symbol id="houseMobail" viewBox="0 0 32 32">
<path fill="#6e78e8" style="fill: var(--color3, #6e78e8)" d="M5.053 0c-2.791 0-5.053 2.262-5.053 5.053v21.895c0 2.79 2.262 5.053 5.053 5.053h21.895c2.79 0 5.053-2.262 5.053-5.053v-21.895c0-2.791-2.262-5.053-5.053-5.053h-21.895zM13.418 17.987v6.902h-5.754v-9.203h-3.453l11.509-10.353 11.509 10.353h-3.453v9.203h-5.754v-6.902h-4.604z"></path>
</symbol>
<symbol id="keep" viewBox="0 0 32 32">
<path fill="#4a56e2" style="fill: var(--color2, #4a56e2)" d="M3.556 0c-1.964 0-3.556 1.592-3.556 3.556v24.889c0 1.964 1.592 3.556 3.556 3.556h24.889c1.964 0 3.556-1.592 3.556-3.556v-24.889c0-1.964-1.592-3.556-3.556-3.556h-24.889zM13.867 17.987v6.902h-5.333v-9.203h-3.2l10.667-10.353 10.667 10.353h-3.2v9.203h-5.333v-6.902h-4.267z"></path>
</symbol>
<symbol id="plus" viewBox="0 0 32 32">
<path fill="none" stroke="#fff" style="stroke: var(--color5, #fff)" stroke-linejoin="miter" stroke-linecap="butt" stroke-miterlimit="4" stroke-width="3.2" d="M16 0v32"></path>
<path fill="none" stroke="#fff" style="stroke: var(--color5, #fff)" stroke-linejoin="miter" stroke-linecap="butt" stroke-miterlimit="4" stroke-width="3.2" d="M0 16h32"></path>
</symbol>
<symbol id="statistics" viewBox="0 0 32 32">
<path fill="#6e78e8" style="fill: var(--color3, #6e78e8)" d="M3.556 0h24.889c1.964 0 3.556 1.592 3.556 3.556v24.889c0 1.964-1.592 3.556-3.556 3.556h-24.889c-1.964 0-3.556-1.592-3.556-3.556v-24.889c0-1.964 1.592-3.556 3.556-3.556zM26.182 13.63c1.244 0 2.263-1.067 2.263-2.37s-1.018-2.37-2.263-2.37c-1.244 0-2.263 1.067-2.263 2.37 0 0.213 0.023 0.415 0.079 0.604l-4.016 4.219c-0.181-0.059-0.385-0.083-0.588-0.083s-0.407 0.024-0.588 0.083l-2.885-3.022c0.057-0.19 0.079-0.403 0.079-0.616 0-1.304-1.018-2.37-2.263-2.37s-2.263 1.067-2.263 2.37c0 0.213 0.023 0.427 0.079 0.616l-5.159 5.393c-0.181-0.059-0.373-0.083-0.577-0.083-1.244 0-2.263 1.067-2.263 2.37s1.018 2.37 2.263 2.37 2.263-1.067 2.263-2.37c0-0.213-0.023-0.415-0.079-0.604l5.147-5.404c0.181 0.059 0.385 0.083 0.588 0.083s0.407-0.024 0.588-0.083l2.885 3.022c-0.057 0.19-0.079 0.403-0.079 0.616 0 1.304 1.018 2.37 2.263 2.37s2.263-1.067 2.263-2.37c0-0.213-0.023-0.427-0.079-0.616l4.027-4.207c0.181 0.059 0.373 0.083 0.577 0.083z"></path>
</symbol>
<symbol id="statisticsMobail" viewBox="0 0 32 32">
<path fill="#4a56e2" style="fill: var(--color2, #4a56e2)" d="M5.053 0h21.895c2.79 0 5.053 2.262 5.053 5.053v21.895c0 2.79-2.262 5.053-5.053 5.053h-21.895c-2.791 0-5.053-2.262-5.053-5.053v-21.895c0-2.791 2.262-5.053 5.053-5.053zM24.842 13.941c1.081 0 1.965-0.926 1.965-2.058s-0.884-2.059-1.965-2.059c-1.081 0-1.965 0.926-1.965 2.059 0 0.185 0.020 0.36 0.069 0.525l-3.488 3.664c-0.157-0.051-0.334-0.072-0.511-0.072s-0.354 0.021-0.511 0.072l-2.505-2.624c0.049-0.165 0.069-0.35 0.069-0.535 0-1.132-0.884-2.058-1.965-2.058s-1.965 0.926-1.965 2.058c0 0.185 0.020 0.371 0.069 0.535l-4.48 4.683c-0.157-0.051-0.324-0.072-0.501-0.072-1.081 0-1.965 0.926-1.965 2.059s0.884 2.058 1.965 2.058 1.965-0.926 1.965-2.058c0-0.185-0.020-0.36-0.069-0.525l4.47-4.693c0.157 0.051 0.334 0.072 0.511 0.072s0.354-0.021 0.511-0.072l2.505 2.625c-0.049 0.165-0.069 0.35-0.069 0.535 0 1.132 0.884 2.059 1.965 2.059s1.965-0.926 1.965-2.059c0-0.185-0.020-0.371-0.069-0.535l3.498-3.654c0.157 0.051 0.324 0.072 0.501 0.072z"></path>
</symbol>
<symbol id="userName" viewBox="0 0 34 32">
<path fill="#e0e0e0" style="fill: var(--color1, #e0e0e0)" d="M0.889 3.556v24.889c0 1.956 1.582 3.556 3.556 3.556h24.889c1.956 0 3.556-1.6 3.556-3.556v-24.889c0-1.956-1.6-3.556-3.556-3.556h-24.889c-1.973 0-3.556 1.6-3.556 3.556zM22.222 10.667c0 2.951-2.382 5.333-5.333 5.333s-5.333-2.382-5.333-5.333c0-2.951 2.382-5.333 5.333-5.333s5.333 2.382 5.333 5.333zM6.222 24.889c0-3.556 7.111-5.511 10.667-5.511s10.667 1.956 10.667 5.511v1.778h-21.333v-1.778z"></path>
</symbol>
</defs>
</svg>
