<svg
    aria-hidden="true"
    style="position: absolute; width: 0; height: 0; overflow: hidden;"
    version="1.1"
    xmlns="http://www.w3.org/2000/svg"
    xmlns:xlink="http://www.w3.org/1999/xlink"
>
<defs>
<symbol id="cancel" viewBox="0 0 32 32">
<path d="M13.999 0.404c-2.771 0.401-5.147 1.382-7.411 3.058-0.814 0.607-2.51 2.303-3.118 3.118-1.749 2.357-2.764 4.907-3.091 7.738-0.12 0.995-0.047 3.365 0.12 4.28 0.3 1.576 0.728 2.864 1.422 4.273 0.875 1.749 1.782 2.984 3.211 4.373 2.31 2.243 5.094 3.672 8.265 4.246 0.995 0.18 3.151 0.247 4.22 0.127 3.518-0.38 6.663-1.863 9.246-4.36 2.023-1.956 3.391-4.186 4.193-6.823 0.501-1.656 0.668-2.991 0.614-4.927-0.060-2.423-0.548-4.346-1.656-6.523-0.835-1.649-1.763-2.898-3.144-4.239-2.303-2.243-5.020-3.638-8.265-4.253-0.928-0.173-3.652-0.227-4.607-0.086zM18.231 1.799c4.54 0.715 8.372 3.438 10.475 7.451 1.021 1.943 1.535 3.925 1.629 6.209 0.327 8.418-6.449 15.195-14.868 14.868-1.736-0.074-3.285-0.38-4.74-0.955-4.813-1.903-8.092-6.009-8.926-11.183-0.16-0.981-0.16-3.365 0-4.366 0.814-5.188 4.119-9.327 8.953-11.216 1.168-0.461 2.524-0.774 4.012-0.928 0.554-0.060 2.831 0.020 3.465 0.12z"></path>
<path d="M8.871 8.549c-0.26 0.114-0.441 0.474-0.374 0.754 0.027 0.12 1.095 1.235 3.291 3.432l3.245 3.258-3.245 3.251c-2.196 2.203-3.265 3.318-3.291 3.438-0.027 0.107 0 0.287 0.053 0.42 0.12 0.28 0.467 0.46 0.761 0.394 0.12-0.027 1.235-1.095 3.438-3.291l3.251-3.244 3.258 3.244c2.197 2.197 3.312 3.265 3.432 3.292 0.294 0.067 0.641-0.113 0.761-0.394 0.053-0.133 0.080-0.314 0.053-0.42-0.027-0.12-1.095-1.235-3.292-3.438l-3.244-3.252 3.244-3.258c2.196-2.196 3.265-3.311 3.292-3.432 0.067-0.294-0.113-0.641-0.394-0.761-0.133-0.053-0.314-0.080-0.42-0.053-0.12 0.027-1.235 1.095-3.438 3.291l-3.251 3.244-3.225-3.218c-2.804-2.804-3.418-3.372-3.638-3.358-0.027 0.007-0.147 0.047-0.267 0.1z"></path>
</symbol>
<symbol id="ok" viewBox="0 0 32 32">
<path d="M29.12 16.16c0 7.84-6.24 14.24-13.92 14.24s-13.92-6.4-13.92-14.24 6.24-14.24 13.92-14.24c2.912 0 5.696 0.896 8.032 2.624 0.288 0.224 0.352 0.608 0.128 0.896s-0.608 0.352-0.896 0.128c-2.112-1.536-4.64-2.368-7.264-2.368-6.976 0-12.64 5.824-12.64 12.96s5.664 12.96 12.64 12.96 12.64-5.824 12.64-12.96c0-0.352 0.288-0.64 0.64-0.64s0.64 0.288 0.64 0.64zM30.496 5.248c-0.256-0.256-0.672-0.256-0.896 0l-13.6 13.888-5.824-5.92c-0.256-0.256-0.64-0.256-0.896 0s-0.256 0.64 0 0.896l6.272 6.4c0.128 0.128 0.288 0.192 0.448 0.192s0.352-0.064 0.448-0.192l14.048-14.368c0.256-0.256 0.256-0.672 0-0.896z"></path>
</symbol>
<symbol id="buttonDel" viewBox="0 0 32 32">
<path d="M16 27.2c0.413 0 0.746-0.333 0.746-0.746v-15.68c0-0.413-0.333-0.746-0.746-0.746s-0.746 0.333-0.746 0.746v15.68c0 0.41 0.333 0.746 0.746 0.746zM12.266 27.2c0.413 0 0.746-0.333 0.746-0.746l-0.746-15.68c0-0.413-0.333-0.746-0.746-0.746s-0.746 0.333-0.746 0.746l0.746 15.68c0 0.41 0.333 0.746 0.746 0.746zM29.44 5.546h-6.72v-2.24c0-1.648-1.338-2.986-2.986-2.986h-7.469c-1.648 0-2.986 1.338-2.986 2.986v2.24h-6.72c-0.413 0-0.746 0.333-0.746 0.746s0.333 0.746 0.746 0.746h3.133l2.096 21.654c0 1.651 1.338 2.986 2.986 2.986h10.454c1.651 0 2.986-1.338 2.986-2.986l2.093-21.651h3.133c0.413 0 0.746-0.336 0.746-0.746 0-0.413-0.333-0.749-0.746-0.749zM10.774 3.306c0-0.826 0.669-1.494 1.494-1.494h7.466c0.826 0 1.494 0.669 1.494 1.494v2.24h-10.454v-2.24zM22.72 28.694c0 0.826-0.669 1.494-1.494 1.494h-10.451c-0.826 0-1.494-0.669-1.494-1.494l-2.096-21.654h17.632l-2.096 21.654zM19.734 27.2c0.413 0 0.746-0.333 0.746-0.746l0.746-15.68c0-0.413-0.333-0.746-0.746-0.746s-0.746 0.333-0.746 0.746l-0.746 15.68c-0.003 0.41 0.333 0.746 0.746 0.746z"></path>
</symbol>
<symbol id="currency" viewBox="0 0 32 32">
<path
                
                d="M5.053 0c-2.791 0-5.053 2.262-5.053 5.053v21.895c0 2.79 2.262 5.053 5.053 5.053h21.895c2.79 0 5.053-2.262 5.053-5.053v-21.895c0-2.791-2.262-5.053-5.053-5.053h-21.895zM13.265 13.136c0 0.995 0.765 1.635 3.144 2.253s4.925 1.635 4.925 4.61c0 2.148-1.624 3.332-3.667 3.72v2.253h-3.143v-2.274c-2.012-0.43-3.73-1.718-3.856-4.013h2.305c0.115 1.236 0.964 2.2 3.123 2.2 2.316 0 2.829-1.153 2.829-1.876 0-0.974-0.524-1.896-3.143-2.525-2.923-0.702-4.925-1.907-4.925-4.327 0-2.022 1.635-3.342 3.667-3.783v-2.263h3.143v2.295c2.19 0.534 3.29 2.19 3.363 3.992h-2.316c-0.063-1.31-0.754-2.2-2.619-2.2-1.771 0-2.829 0.796-2.829 1.938z"
            />
</symbol>
<symbol id="email" viewBox="0 0 32 32">
<path
                fill="#e0e0e0"
                style="fill: var(--color2, #e0e0e0)"
                d="M28.19 3.81h-24.381c-1.676 0-3.032 1.371-3.032 3.048l-0.015 18.286c0 1.676 1.371 3.048 3.048 3.048h24.381c1.676 0 3.048-1.371 3.048-3.048v-18.286c0-1.676-1.371-3.048-3.048-3.048zM28.19 9.905l-12.19 7.619-12.19-7.619v-3.048l12.19 7.619 12.19-7.619v3.048z"
            />
</symbol>
<symbol id="exit" viewBox="0 0 32 32">
<path
            
                d="M20.051 23.237h2.499v4.997c0 2.067-1.681 3.748-3.748 3.748h-15.054c-2.066 0-3.748-1.681-3.748-3.748v-24.486c0-2.066 1.681-3.748 3.748-3.748h15.054c2.067 0 3.748 1.681 3.748 3.748v4.997h-2.499v-4.997c0-0.689-0.56-1.249-1.249-1.249h-15.054c-0.689 0-1.249 0.561-1.249 1.249v24.486c0 0.689 0.561 1.249 1.249 1.249h15.054c0.689 0 1.249-0.561 1.249-1.249v-4.997zM26.111 10.102l-1.767 1.767 2.873 2.874h-16.161v2.499h16.161l-2.873 2.873 1.767 1.767 5.889-5.889-5.889-5.89z"
            />
</symbol>
<symbol id="home" viewBox="0 0 32 32">
<path
                
                d="M5.053 0c-2.791 0-5.053 2.262-5.053 5.053v21.895c0 2.79 2.262 5.053 5.053 5.053h21.895c2.79 0 5.053-2.262 5.053-5.053v-21.895c0-2.791-2.262-5.053-5.053-5.053h-21.895zM13.418 17.987v6.902h-5.754v-9.203h-3.453l11.509-10.353 11.509 10.353h-3.453v9.203h-5.754v-6.902h-4.604z"
            />
</symbol>
<symbol id="name" viewBox="0 0 32 32">
<path
                fill="#e0e0e0"
                style="fill: var(--color2, #e0e0e0)"
                d="M0.842 4.211v23.579c0 1.853 1.499 3.368 3.368 3.368h23.579c1.853 0 3.368-1.516 3.368-3.368v-23.579c0-1.853-1.516-3.368-3.368-3.368h-23.579c-1.869 0-3.368 1.516-3.368 3.368zM21.053 10.947c0 2.796-2.257 5.053-5.053 5.053s-5.053-2.257-5.053-5.053c0-2.796 2.257-5.053 5.053-5.053s5.053 2.257 5.053 5.053zM5.895 24.421c0-3.368 6.737-5.221 10.105-5.221s10.105 1.853 10.105 5.221v1.684h-20.211v-1.684z"
            />
</symbol>
<symbol id="password" viewBox="0 0 32 32">
<path
                fill="#e0e0e0"
                style="fill: var(--color2, #e0e0e0)"
                d="M25.143 10.667h-1.524v-3.048c0-4.206-3.413-7.619-7.619-7.619s-7.619 3.413-7.619 7.619v3.048h-1.524c-1.676 0-3.048 1.371-3.048 3.048v15.238c0 1.676 1.371 3.048 3.048 3.048h18.286c1.676 0 3.048-1.371 3.048-3.048v-15.238c0-1.676-1.371-3.048-3.048-3.048zM16 24.381c-1.676 0-3.048-1.371-3.048-3.048s1.371-3.048 3.048-3.048c1.676 0 3.048 1.371 3.048 3.048s-1.371 3.048-3.048 3.048zM20.724 10.667h-9.448v-3.048c0-2.606 2.118-4.724 4.724-4.724s4.724 2.118 4.724 4.724v3.048z"
            />
</symbol>
<symbol id="statistic" viewBox="0 0 32 32">
<path
                d="M5.053 0h21.895c2.79 0 5.053 2.262 5.053 5.053v21.895c0 2.79-2.262 5.053-5.053 5.053h-21.895c-2.791 0-5.053-2.262-5.053-5.053v-21.895c0-2.791 2.262-5.053 5.053-5.053zM24.842 13.941c1.081 0 1.965-0.926 1.965-2.058s-0.884-2.059-1.965-2.059c-1.081 0-1.965 0.926-1.965 2.059 0 0.185 0.020 0.36 0.069 0.525l-3.488 3.664c-0.157-0.051-0.334-0.072-0.511-0.072s-0.354 0.021-0.511 0.072l-2.505-2.624c0.049-0.165 0.069-0.35 0.069-0.535 0-1.132-0.884-2.058-1.965-2.058s-1.965 0.926-1.965 2.058c0 0.185 0.020 0.371 0.069 0.535l-4.48 4.683c-0.157-0.051-0.324-0.072-0.501-0.072-1.081 0-1.965 0.926-1.965 2.059s0.884 2.058 1.965 2.058 1.965-0.926 1.965-2.058c0-0.185-0.020-0.36-0.069-0.525l4.47-4.693c0.157 0.051 0.334 0.072 0.511 0.072s0.354-0.021 0.511-0.072l2.505 2.625c-0.049 0.165-0.069 0.35-0.069 0.535 0 1.132 0.884 2.059 1.965 2.059s1.965-0.926 1.965-2.059c0-0.185-0.020-0.371-0.069-0.535l3.498-3.654c0.157 0.051 0.324 0.072 0.501 0.072z"
            />
</symbol>
<symbol id="wallet" viewBox="0 0 32 32">
<path
                fill="#24cca7"
                style="fill: var(--color4, #24cca7)"
                d="M3.755 7.619l16.211-4.537-0.859-1.779c-0.562-1.157-1.932-1.634-3.060-1.058l-14.513 7.375h2.219z"
            />
<path
                fill="#24cca7"
                style="fill: var(--color4, #24cca7)"
                d="M24.813 3.048c-0.195 0-0.391 0.029-0.586 0.087l-15.012 4.484h18.431l-0.693-2.779c-0.266-1.083-1.163-1.793-2.14-1.793z"
            />
<path
                fill="#4a56e2"
                style="fill: var(--color5, #4a56e2)"
                d="M28.36 8.573h-26.559c-0.568 0-1.074 0.26-1.405 0.67-0.151 0.189-0.266 0.406-0.331 0.645-0.040 0.15-0.065 0.307-0.065 0.467v19.862c0 0.984 0.805 1.783 1.797 1.783h26.559c0.992 0 1.797-0.799 1.797-1.783v-4.973h-10.662c-1.685 0-3.054-1.358-3.054-3.030v-3.964c0-0.82 0.331-1.565 0.866-2.111 0.474-0.485 1.11-0.813 1.822-0.895 0.119-0.014 0.241-0.021 0.363-0.021h10.666v-4.867c0.004-0.984-0.801-1.783-1.793-1.783z"
            />
<path
                fill="#4a56e2"
                style="fill: var(--color5, #4a56e2)"
                d="M31.414 16.926c-0.18-0.164-0.392-0.289-0.629-0.371-0.183-0.061-0.377-0.096-0.582-0.096h-10.712c-0.992 0-1.797 0.799-1.797 1.783v3.968c0 0.984 0.805 1.783 1.797 1.783h10.712c0.205 0 0.399-0.036 0.582-0.096 0.237-0.078 0.449-0.207 0.629-0.371 0.359-0.324 0.586-0.795 0.586-1.316v-3.968c0-0.52-0.226-0.991-0.586-1.316zM23.243 20.581c0 0.492-0.402 0.891-0.898 0.891h-0.596c-0.496 0-0.898-0.399-0.898-0.891v-0.592c0-0.285 0.133-0.538 0.345-0.699 0.155-0.118 0.345-0.193 0.553-0.193h0.596c0.496 0 0.898 0.399 0.898 0.891v0.592z"
            />
</symbol>
<symbol id="plusSvg" viewBox="0 0 32 32">
<path
                fill="none"
                stroke="#fff"
                style="stroke: var(--color1, #fff)"
                stroke-linejoin="miter"
                stroke-linecap="butt"
                stroke-miterlimit="4"
                stroke-width="3.2"
                d="M16 0v32"
            />
<path
                fill="none"
                stroke="#fff"
                style="stroke: var(--color1, #fff)"
                stroke-linejoin="miter"
                stroke-linecap="butt"
                stroke-miterlimit="4"
                stroke-width="3.2"
                d="M0 16h32"
            />
</symbol>
<symbol id="modalMinus" viewBox="0 0 320 32">
<path
                fill="none"
                stroke="#fff"
                style="stroke: var(--color1, #fff)"
                stroke-linejoin="miter"
                stroke-linecap="butt"
                stroke-miterlimit="4"
                stroke-width="32"
                d="M0 16l320-0"
            />
</symbol>
<symbol id="calendarSvg" viewBox="0 0 32 32">
<path
                fill="#4a56e2"
                style="fill: var(--color1, #4a56e2)"
                d="M12 14.667h-2.667v2.667h2.667v-2.667zM17.333 14.667h-2.667v2.667h2.667v-2.667zM22.667 14.667h-2.667v2.667h2.667v-2.667zM25.333 5.333h-1.333v-2.667h-2.667v2.667h-10.667v-2.667h-2.667v2.667h-1.333c-1.48 0-2.653 1.2-2.653 2.667l-0.013 18.667c0 1.467 1.187 2.667 2.667 2.667h18.667c1.467 0 2.667-1.2 2.667-2.667v-18.667c0-1.467-1.2-2.667-2.667-2.667zM25.333 26.667h-18.667v-14.667h18.667v14.667z"
            />
</symbol>
<symbol id="closeModal" viewBox="0 0 1024 1024"><title>cross</title>
<path
                class="path1"
                d="M548.203 537.6l289.099-289.098c9.998-9.998 9.998-26.206 0-36.205-9.997-9.997-26.206-9.997-36.203 0l-289.099 289.099-289.098-289.099c-9.998-9.997-26.206-9.997-36.205 0-9.997 9.998-9.997 26.206 0 36.205l289.099 289.098-289.099 289.099c-9.997 9.997-9.997 26.206 0 36.203 5 4.998 11.55 7.498 18.102 7.498s13.102-2.499 18.102-7.499l289.098-289.098 289.099 289.099c4.998 4.998 11.549 7.498 18.101 7.498s13.102-2.499 18.101-7.499c9.998-9.997 9.998-26.206 0-36.203l-289.098-289.098z"
            /></symbol>
            <symbol id="dropItemModal" viewBox="0 0 58 32">
<path
                stroke-linejoin="miter"
                stroke-linecap="butt"
                stroke-miterlimit="4"
                stroke-width="2.9091"
                d="M2.909 2.909l26.182 26.182 26.182-26.182"
            />
</symbol>
<symbol id="icon-vector" viewBox="0 0 58 32">
<path stroke-linejoin="miter" stroke-linecap="butt" stroke-miterlimit="4" stroke-width="2.9091" d="M2.909 2.909l26.182 26.182 26.182-26.182"></path>
</symbol>
</defs>
</svg>
